<svg xmlns="http://www.w3.org/2000/svg" xmlns:xlink="http://www.w3.org/1999/xlink" width="800" zoomAndPan="magnify" viewBox="0 0 600 599.999999" height="800" preserveAspectRatio="xMidYMid meet" version="1.0"><defs><clipPath id="b482aeb270"><path d="M 309 0 L 599.992188 0 L 599.992188 599.996094 L 309 599.996094 Z M 309 0 " clip-rule="nonzero"/></clipPath><clipPath id="f0ab2bf7b5"><path d="M 0 0 L 291 0 L 291 599.070312 L 0 599.070312 Z M 0 0 " clip-rule="nonzero"/></clipPath></defs><path fill="#333333" d="M 308.429688 140.515625 L 291.566406 140.515625 C 277.050781 140.515625 265.808594 151.289062 265.808594 164.871094 L 265.808594 178.925781 C 256.441406 181.734375 247.539062 185.484375 238.640625 190.164062 L 228.804688 180.328125 C 219.433594 170.960938 203.507812 171.429688 193.207031 181.734375 L 181.5 193.441406 C 171.195312 203.746094 170.722656 219.671875 180.089844 229.039062 L 189.929688 238.875 C 185.246094 247.308594 181.5 256.671875 178.6875 266.042969 L 164.636719 266.042969 C 151.523438 266.042969 140.28125 277.753906 140.28125 292.273438 L 140.28125 308.667969 C 140.28125 323.183594 151.050781 334.898438 164.636719 334.898438 L 178.6875 334.898438 C 181.5 344.265625 185.246094 353.160156 189.929688 362.0625 L 180.089844 371.898438 C 170.722656 381.265625 171.195312 397.191406 181.5 407.496094 L 193.207031 419.203125 C 203.507812 429.507812 219.433594 429.976562 228.804688 420.609375 L 238.640625 410.773438 C 247.074219 415.457031 256.441406 419.203125 265.808594 422.011719 L 265.808594 436.066406 C 265.808594 449.652344 277.515625 460.421875 291.566406 460.421875 L 308.429688 460.421875 C 322.949219 460.421875 334.191406 449.652344 334.191406 436.066406 L 334.191406 422.011719 C 343.558594 419.203125 352.457031 415.457031 361.355469 410.773438 L 371.195312 420.609375 C 380.5625 429.976562 396.488281 429.507812 406.792969 419.203125 L 418.5 407.496094 C 423.652344 402.339844 426.464844 395.316406 426.464844 388.292969 C 426.464844 382.203125 424.121094 376.117188 419.90625 371.898438 L 410.070312 362.0625 C 414.75 353.632812 418.5 344.265625 421.308594 334.898438 L 435.359375 334.898438 C 448.476562 334.898438 459.71875 323.183594 459.71875 308.667969 L 459.71875 292.273438 C 459.71875 277.753906 448.945312 266.042969 435.359375 266.042969 L 421.308594 266.042969 C 418.5 256.671875 414.75 247.777344 410.070312 238.875 L 419.90625 229.039062 C 424.589844 224.355469 426.929688 217.800781 426.464844 210.773438 C 425.992188 204.214844 423.183594 198.125 418.5 193.441406 L 406.792969 181.734375 C 396.488281 171.429688 380.5625 170.960938 371.195312 180.328125 L 361.355469 190.164062 C 352.925781 185.484375 343.558594 181.734375 334.191406 178.925781 L 334.191406 164.871094 C 334.191406 151.289062 322.480469 140.515625 308.429688 140.515625 Z M 357.609375 209.367188 C 361.355469 211.707031 366.039062 211.242188 369.320312 207.960938 L 384.308594 192.976562 C 386.183594 191.101562 390.394531 191.570312 393.207031 194.378906 L 404.917969 206.089844 C 406.320312 207.496094 407.257812 209.367188 407.726562 211.242188 C 407.726562 212.179688 407.726562 213.582031 406.320312 214.988281 L 391.332031 229.976562 C 388.054688 233.253906 387.585938 237.9375 389.929688 241.683594 C 396.953125 252.460938 401.636719 264.167969 404.449219 276.347656 C 405.382812 280.5625 409.132812 283.839844 413.816406 283.839844 L 434.894531 283.839844 C 437.707031 283.839844 440.515625 287.121094 440.515625 291.335938 L 440.515625 307.730469 C 440.515625 311.945312 438.171875 315.226562 434.894531 315.226562 L 413.816406 315.226562 C 409.601562 315.226562 405.382812 318.5 404.449219 322.71875 C 401.636719 334.898438 396.953125 346.605469 389.929688 357.378906 C 387.585938 361.128906 388.054688 365.808594 391.332031 369.085938 L 406.320312 384.074219 C 407.257812 385.011719 407.726562 386.417969 407.726562 387.355469 C 407.726562 389.230469 406.792969 391.570312 404.917969 392.976562 L 393.675781 405.152344 C 390.867188 407.960938 386.648438 408.433594 384.777344 406.558594 L 369.785156 391.570312 C 366.511719 388.292969 361.824219 387.824219 358.078125 390.167969 C 347.304688 397.191406 335.597656 401.875 323.417969 404.683594 C 319.199219 405.621094 315.921875 409.371094 315.921875 414.050781 L 315.921875 435.128906 C 315.921875 437.9375 312.644531 440.75 308.894531 440.75 L 292.039062 440.75 C 288.289062 440.75 285.007812 438.410156 285.007812 435.128906 L 285.007812 414.050781 C 285.007812 409.835938 281.734375 405.621094 277.515625 404.683594 C 265.335938 401.875 253.628906 397.191406 242.855469 390.167969 C 240.515625 389.230469 239.109375 388.757812 237.234375 388.757812 C 234.894531 388.757812 232.550781 389.695312 230.675781 391.570312 L 215.6875 406.558594 C 213.816406 408.433594 209.601562 407.960938 206.789062 405.152344 L 194.613281 393.441406 C 191.800781 390.632812 191.332031 386.417969 193.207031 384.546875 L 208.195312 369.558594 C 211.476562 366.277344 211.941406 361.59375 209.601562 357.847656 C 202.574219 347.074219 197.890625 335.363281 195.078125 323.183594 C 194.144531 318.972656 190.394531 315.691406 185.710938 315.691406 L 164.636719 315.691406 C 161.824219 315.691406 159.015625 312.414062 159.015625 308.195312 L 159.015625 291.804688 C 159.015625 288.058594 161.355469 284.308594 164.636719 284.308594 L 185.710938 284.308594 C 189.929688 284.308594 194.144531 281.03125 195.078125 276.816406 C 197.890625 264.640625 202.574219 252.925781 209.601562 242.15625 C 211.941406 238.410156 211.476562 233.726562 208.195312 230.445312 L 193.675781 215.457031 C 191.800781 213.582031 192.269531 209.367188 195.078125 206.554688 L 206.789062 194.851562 C 209.601562 192.039062 213.816406 191.570312 215.6875 193.441406 L 230.675781 208.429688 C 233.957031 211.707031 238.640625 212.179688 242.386719 209.835938 C 253.160156 202.8125 264.871094 198.125 277.050781 195.316406 C 281.261719 194.378906 284.542969 190.632812 284.542969 185.949219 L 284.542969 164.871094 C 284.542969 162.0625 287.820312 159.253906 291.566406 159.253906 L 308.429688 159.253906 C 312.175781 159.253906 315.453125 161.59375 315.453125 164.871094 L 315.453125 185.949219 C 315.453125 190.164062 318.734375 194.378906 322.949219 195.316406 C 335.125 197.660156 346.839844 202.8125 357.609375 209.367188 Z M 357.609375 209.367188 " fill-opacity="0.75" fill-rule="nonzero"/><path fill="#333333" d="M 239.109375 299.765625 C 239.109375 333.488281 266.277344 360.65625 299.996094 360.65625 C 333.722656 360.65625 360.890625 333.488281 360.890625 299.765625 C 360.890625 266.042969 333.722656 238.875 299.996094 238.875 C 266.277344 238.875 239.109375 266.042969 239.109375 299.765625 Z M 239.109375 299.765625 " fill-opacity="0.5" fill-rule="nonzero"/><g clip-path="url(#b482aeb270)"><path fill="#333333" d="M 599.757812 350.816406 C 599.757812 328.800781 588.515625 309.601562 570.71875 297.890625 C 567.90625 296.015625 563.691406 296.015625 560.882812 297.890625 C 555.730469 301.636719 547.296875 308.195312 544.019531 313.8125 C 539.804688 320.839844 537.929688 329.273438 537.929688 337.234375 C 537.929688 342.855469 532.78125 347.539062 527.160156 346.601562 C 522.476562 345.664062 519.195312 341.449219 519.195312 336.765625 C 519.195312 325.527344 522.476562 314.285156 528.09375 304.445312 C 539.804688 284.308594 561.820312 271.660156 584.769531 271.660156 C 585.238281 271.660156 586.175781 271.660156 586.640625 271.660156 C 593.199219 260.886719 596.480469 248.710938 596.480469 235.59375 C 596.480469 204.683594 576.335938 178.453125 548.234375 167.679688 C 548.234375 167.679688 547.769531 167.679688 547.769531 167.679688 C 543.085938 166.746094 538.398438 166.273438 533.246094 166.273438 C 511.699219 166.273438 491.5625 175.640625 479.382812 191.101562 C 477.511719 193.441406 474.699219 194.847656 471.890625 194.847656 C 470.015625 194.847656 467.675781 194.378906 465.800781 192.972656 C 461.585938 189.695312 461.117188 183.605469 464.394531 179.859375 C 480.320312 160.1875 505.613281 148.007812 533.246094 148.007812 C 541.210938 148.007812 548.703125 148.945312 555.730469 150.820312 C 557.136719 146.601562 557.601562 141.917969 557.601562 137.234375 C 557.601562 106.792969 531.84375 81.964844 500.460938 81.964844 C 498.585938 81.964844 496.710938 81.964844 495.308594 81.964844 C 488.75 50.585938 459.710938 26.695312 425.050781 26.695312 C 424.113281 26.695312 419.902344 26.695312 418.964844 26.695312 C 417.558594 26.695312 402.101562 25.292969 390.390625 41.683594 C 388.515625 44.027344 385.707031 45.429688 382.894531 45.429688 C 381.023438 45.429688 379.148438 44.964844 377.277344 43.558594 C 373.0625 40.28125 372.125 34.660156 375.402344 30.441406 C 384.769531 17.796875 395.542969 12.175781 404.441406 9.832031 C 394.136719 3.746094 381.960938 0 369.316406 0 C 336.058594 0 309.363281 24.355469 309.363281 56.207031 L 309.363281 121.78125 C 333.71875 122.246094 352.917969 141.453125 352.917969 164.871094 L 352.917969 165.335938 C 354.328125 165.808594 355.730469 166.746094 357.601562 167.210938 L 358.074219 166.746094 C 374.933594 149.882812 402.570312 150.820312 419.902344 168.148438 L 431.609375 179.859375 C 439.574219 187.820312 444.257812 198.59375 445.191406 209.367188 C 446.128906 221.542969 441.445312 233.25 433.015625 241.683594 L 432.546875 242.152344 C 433.015625 243.554688 433.953125 244.964844 434.417969 246.835938 L 434.890625 246.835938 C 458.308594 246.835938 477.980469 266.976562 477.980469 291.800781 L 477.980469 308.195312 C 477.980469 333.019531 458.773438 353.160156 434.890625 353.160156 L 434.417969 353.160156 C 433.953125 354.566406 433.015625 355.96875 432.546875 357.84375 L 433.015625 358.3125 C 440.976562 366.273438 445.191406 376.578125 445.191406 387.820312 C 445.191406 399.527344 440.039062 411.238281 431.609375 420.136719 L 419.902344 431.847656 C 402.570312 449.175781 374.464844 449.644531 358.074219 433.25 L 357.601562 432.785156 C 356.199219 433.25 354.792969 434.1875 352.917969 434.65625 L 352.917969 435.125 C 352.917969 458.542969 333.246094 477.75 309.363281 478.214844 L 309.363281 525.054688 C 309.363281 564.867188 343.550781 599.996094 384.769531 599.996094 C 411 599.996094 434.417969 586.878906 447.535156 566.742188 C 418.027344 559.714844 396.011719 529.269531 396.011719 493.675781 C 396.011719 488.519531 400.226562 484.304688 405.378906 484.304688 C 410.53125 484.304688 414.746094 488.519531 414.746094 493.675781 C 414.746094 522.714844 433.015625 546.132812 456.433594 549.410156 C 457.371094 549.410156 458.308594 549.410156 459.246094 549.410156 C 495.308594 549.410156 524.347656 521.308594 524.816406 487.117188 C 557.601562 484.773438 583.363281 458.542969 583.363281 426.226562 C 583.363281 416.859375 581.019531 407.492188 576.808594 399.53125 C 590.859375 387.820312 599.757812 370.019531 599.757812 350.816406 Z M 426.457031 143.324219 C 403.039062 143.324219 382.894531 128.335938 377.277344 107.257812 C 375.871094 102.109375 379.148438 96.953125 383.832031 96.015625 C 388.988281 94.613281 394.136719 97.890625 395.074219 102.574219 C 398.355469 115.222656 411.46875 124.589844 425.988281 124.589844 C 436.292969 124.589844 445.660156 120.371094 451.75 112.878906 C 455.027344 109.132812 461.117188 108.195312 464.867188 111.476562 C 468.613281 114.753906 469.550781 120.84375 466.269531 124.589844 C 456.902344 136.296875 442.382812 143.324219 426.457031 143.324219 Z M 507.015625 443.554688 C 505.613281 447.773438 501.867188 450.113281 498.117188 450.113281 C 497.183594 450.113281 496.246094 450.113281 495.308594 449.644531 C 490.625 448.238281 487.816406 442.617188 489.222656 437.933594 C 492.5 428.566406 488.75 417.796875 480.320312 412.175781 C 474.699219 408.429688 468.140625 407.957031 462.054688 410.300781 C 457.371094 412.175781 451.75 409.832031 449.878906 405.148438 C 448.003906 400.464844 450.34375 394.847656 455.027344 392.972656 C 466.738281 388.289062 479.855469 389.691406 490.15625 396.25 C 506.078125 406.554688 512.636719 425.757812 507.015625 443.554688 Z M 485.472656 266.976562 C 484.539062 266.976562 483.128906 266.976562 482.195312 266.976562 C 477.042969 266.507812 473.296875 262.292969 473.296875 257.140625 C 473.761719 251.988281 477.980469 248.238281 483.128906 248.238281 C 491.5625 248.710938 499.054688 245.898438 504.675781 240.746094 C 509.828125 235.59375 511.699219 229.039062 510.296875 222.480469 C 509.359375 217.328125 512.171875 212.175781 517.320312 211.238281 C 522.476562 210.300781 527.625 213.113281 528.5625 218.261719 C 531.371094 230.910156 527.625 244.492188 517.792969 253.859375 C 509.359375 262.292969 497.648438 266.976562 485.472656 266.976562 Z M 485.472656 266.976562 " fill-opacity="1" fill-rule="nonzero"/></g><g clip-path="url(#f0ab2bf7b5)"><path fill="#333333" d="M 140.742188 548.945312 C 141.679688 548.945312 142.617188 548.945312 143.554688 548.945312 C 165.097656 543.789062 181.496094 520.839844 181.496094 493.675781 C 181.496094 488.519531 185.707031 484.304688 190.863281 484.304688 C 196.011719 484.304688 200.230469 488.519531 200.230469 493.675781 C 200.230469 528.335938 179.621094 557.375 151.984375 565.804688 C 165.097656 585.945312 188.519531 599.058594 215.21875 599.058594 C 256.4375 599.058594 290.625 563.933594 290.625 524.117188 L 290.625 477.277344 C 266.269531 476.8125 247.066406 457.605469 247.066406 434.1875 L 247.066406 433.71875 C 245.660156 433.25 244.257812 432.3125 242.382812 431.847656 L 241.914062 432.3125 C 225.050781 449.175781 197.417969 448.238281 180.085938 430.910156 L 168.378906 419.199219 C 151.046875 401.871094 150.582031 373.765625 166.972656 357.375 L 167.441406 356.90625 C 166.972656 355.503906 166.035156 354.09375 165.570312 352.222656 L 165.097656 352.222656 C 141.679688 352.222656 122.007812 332.082031 122.007812 307.257812 L 122.007812 290.863281 C 122.007812 266.039062 141.214844 245.898438 165.097656 245.898438 L 165.570312 245.898438 C 166.035156 244.492188 166.972656 242.621094 167.441406 241.214844 L 166.972656 240.746094 C 150.109375 223.882812 151.046875 196.25 168.378906 178.921875 L 180.085938 167.210938 C 197.417969 149.882812 225.523438 148.945312 241.914062 165.808594 L 242.382812 166.273438 C 243.789062 165.808594 245.195312 164.871094 247.066406 164.402344 L 247.066406 163.933594 C 247.066406 140.515625 266.742188 121.78125 290.625 120.84375 L 290.625 56.207031 C 290.625 24.355469 263.929688 0 230.671875 0 C 216.621094 0 203.976562 4.683594 193.671875 12.644531 C 201.167969 15.925781 209.128906 21.074219 216.15625 30.441406 C 218.964844 34.191406 218.964844 39.808594 215.683594 43.089844 C 213.8125 44.964844 211.472656 45.902344 209.128906 45.902344 C 206.316406 45.902344 203.507812 44.496094 201.632812 42.152344 C 195.074219 32.785156 187.113281 29.507812 181.023438 28.101562 C 180.085938 28.101562 179.152344 28.101562 178.683594 27.632812 C 177.746094 27.632812 176.339844 27.632812 175.402344 27.632812 C 140.742188 27.632812 111.703125 51.523438 105.144531 82.902344 C 103.273438 82.902344 101.867188 82.902344 99.996094 82.902344 C 68.144531 82.433594 42.386719 107.257812 42.386719 137.703125 C 42.386719 142.386719 42.851562 146.601562 44.257812 150.820312 C 50.816406 149.414062 57.375 148.945312 63.929688 148.945312 C 91.097656 148.945312 116.855469 160.652344 132.78125 180.796875 C 136.058594 185.011719 135.121094 190.628906 131.375 193.910156 C 129.5 195.3125 127.628906 195.785156 125.753906 195.785156 C 122.945312 195.785156 120.132812 194.378906 118.261719 192.039062 C 106.082031 176.578125 85.945312 167.210938 64.398438 167.210938 C 60.652344 167.210938 56.4375 167.679688 52.691406 168.148438 C 23.648438 178.921875 3.042969 205.617188 3.042969 236.53125 C 3.042969 250.582031 7.253906 263.226562 14.28125 274.46875 C 15.6875 274.003906 16.621094 273.53125 18.03125 273.53125 C 41.449219 273.53125 62.996094 286.179688 74.703125 306.320312 C 80.324219 316.15625 83.605469 327.398438 83.605469 338.640625 C 83.605469 343.324219 80.324219 348.007812 75.640625 348.945312 C 70.019531 349.882812 64.867188 345.199219 64.867188 339.578125 C 64.867188 331.144531 62.523438 323.183594 58.3125 316.15625 C 52.691406 306.789062 43.789062 299.296875 33.953125 296.015625 C 13.8125 306.320312 0.230469 326.929688 0.230469 350.816406 C 0.230469 370.019531 9.128906 387.351562 23.179688 399.058594 C 18.964844 407.492188 16.621094 416.386719 16.621094 425.757812 C 16.621094 458.078125 42.386719 484.304688 75.171875 486.644531 C 75.640625 521.308594 105.144531 548.945312 140.742188 548.945312 Z M 133.25 124.589844 C 129.972656 120.371094 130.4375 114.753906 134.65625 111.476562 C 138.871094 108.195312 144.488281 108.664062 147.769531 112.878906 C 153.859375 120.371094 163.226562 124.589844 173.53125 124.589844 C 188.050781 124.589844 201.167969 115.222656 204.441406 102.574219 C 205.851562 97.421875 211 94.613281 215.683594 96.015625 C 220.839844 97.421875 223.648438 102.574219 222.242188 107.257812 C 216.621094 128.335938 196.484375 143.324219 173.0625 143.324219 C 157.605469 143.324219 143.085938 136.296875 133.25 124.589844 Z M 144.488281 393.441406 C 149.175781 395.3125 151.515625 400.933594 149.644531 405.617188 C 147.769531 410.300781 142.148438 412.640625 137.464844 410.769531 C 131.375 408.429688 124.816406 408.894531 119.195312 412.175781 C 110.765625 417.324219 107.488281 428.101562 110.300781 437.933594 C 111.703125 443.089844 108.894531 448.238281 104.207031 449.644531 C 103.273438 450.113281 102.335938 450.113281 101.398438 450.113281 C 97.65625 450.113281 93.90625 447.773438 92.5 443.554688 C 86.878906 425.757812 93.90625 406.554688 109.363281 396.714844 C 120.132812 389.691406 133.25 388.753906 144.488281 393.441406 Z M 82.195312 253.859375 C 72.828125 244.492188 68.613281 230.910156 71.425781 218.261719 C 72.363281 213.113281 77.511719 209.832031 82.667969 211.238281 C 87.816406 212.175781 91.097656 217.328125 89.691406 222.480469 C 88.289062 229.039062 90.160156 235.59375 95.3125 240.746094 C 100.933594 246.367188 108.425781 249.175781 116.855469 248.710938 C 122.007812 248.238281 126.226562 252.457031 126.691406 257.609375 C 127.160156 262.761719 122.945312 267.445312 117.792969 267.445312 C 116.855469 267.445312 115.449219 267.445312 114.511719 267.445312 C 102.335938 266.976562 90.628906 262.292969 82.195312 253.859375 Z M 82.195312 253.859375 " fill-opacity="1" fill-rule="nonzero"/></g></svg>