<svg xmlns="http://www.w3.org/2000/svg" xmlns:xlink="http://www.w3.org/1999/xlink" width="800" zoomAndPan="magnify" viewBox="0 0 600 599.999999" height="800" preserveAspectRatio="xMidYMid meet" version="1.0"><defs><clipPath id="24a4b309e6"><path d="M 308 30 L 569.992188 30 L 569.992188 569.996094 L 308 569.996094 Z M 308 30 " clip-rule="nonzero"/></clipPath><clipPath id="1cf4f96bba"><path d="M 30 30 L 292 30 L 292 569.164062 L 30 569.164062 Z M 30 30 " clip-rule="nonzero"/></clipPath></defs><path fill="#333333" d="M 307.585938 156.464844 L 292.410156 156.464844 C 279.34375 156.464844 269.226562 166.160156 269.226562 178.386719 L 269.226562 191.03125 C 260.796875 193.5625 252.785156 196.933594 244.777344 201.148438 L 235.921875 192.296875 C 227.492188 183.863281 213.160156 184.285156 203.882812 193.5625 L 193.347656 204.097656 C 184.074219 213.371094 183.648438 227.707031 192.082031 236.136719 L 200.9375 244.988281 C 196.71875 252.574219 193.347656 261.003906 190.816406 269.4375 L 178.171875 269.4375 C 166.371094 269.4375 156.25 279.976562 156.25 293.046875 L 156.25 307.800781 C 156.25 320.867188 165.945312 331.40625 178.171875 331.40625 L 190.816406 331.40625 C 193.347656 339.839844 196.71875 347.84375 200.9375 355.855469 L 192.082031 364.707031 C 183.648438 373.136719 184.074219 387.472656 193.347656 396.746094 L 203.882812 407.285156 C 213.160156 416.558594 227.492188 416.980469 235.921875 408.550781 L 244.777344 399.695312 C 252.367188 403.910156 260.796875 407.285156 269.226562 409.8125 L 269.226562 422.460938 C 269.226562 434.6875 279.765625 444.378906 292.410156 444.378906 L 307.585938 444.378906 C 320.652344 444.378906 330.769531 434.6875 330.769531 422.460938 L 330.769531 409.8125 C 339.203125 407.285156 347.210938 403.910156 355.21875 399.695312 L 364.074219 408.550781 C 372.503906 416.980469 386.839844 416.558594 396.113281 407.285156 L 406.648438 396.746094 C 411.289062 392.105469 413.816406 385.785156 413.816406 379.464844 C 413.816406 373.980469 411.707031 368.503906 407.917969 364.707031 L 399.0625 355.855469 C 403.277344 348.269531 406.648438 339.839844 409.179688 331.40625 L 421.824219 331.40625 C 433.628906 331.40625 443.746094 320.867188 443.746094 307.800781 L 443.746094 293.046875 C 443.746094 279.976562 434.050781 269.4375 421.824219 269.4375 L 409.179688 269.4375 C 406.648438 261.003906 403.277344 253 399.0625 244.988281 L 407.917969 236.136719 C 412.132812 231.921875 414.238281 226.019531 413.816406 219.695312 C 413.394531 213.792969 410.863281 208.3125 406.648438 204.097656 L 396.113281 193.5625 C 386.839844 184.285156 372.503906 183.863281 364.074219 192.296875 L 355.21875 201.148438 C 347.632812 196.933594 339.203125 193.5625 330.769531 191.03125 L 330.769531 178.386719 C 330.769531 166.160156 320.234375 156.464844 307.585938 156.464844 Z M 351.847656 218.433594 C 355.21875 220.539062 359.433594 220.117188 362.386719 217.164062 L 375.878906 203.679688 C 377.5625 201.992188 381.355469 202.414062 383.886719 204.941406 L 394.425781 215.480469 C 395.6875 216.746094 396.53125 218.433594 396.957031 220.117188 C 396.957031 220.960938 396.957031 222.222656 395.6875 223.492188 L 382.199219 236.980469 C 379.25 239.929688 378.828125 244.144531 380.9375 247.515625 C 387.257812 257.214844 391.472656 267.75 394.003906 278.710938 C 394.847656 282.507812 398.21875 285.457031 402.433594 285.457031 L 421.40625 285.457031 C 423.933594 285.457031 426.464844 288.410156 426.464844 292.199219 L 426.464844 306.957031 C 426.464844 310.75 424.355469 313.703125 421.40625 313.703125 L 402.433594 313.703125 C 398.640625 313.703125 394.847656 316.652344 394.003906 320.445312 C 391.472656 331.40625 387.257812 341.945312 380.9375 351.640625 C 378.828125 355.015625 379.25 359.230469 382.199219 362.179688 L 395.6875 375.667969 C 396.53125 376.511719 396.957031 377.777344 396.957031 378.621094 C 396.957031 380.308594 396.113281 382.414062 394.425781 383.675781 L 384.308594 394.636719 C 381.78125 397.164062 377.984375 397.589844 376.296875 395.902344 L 362.808594 382.414062 C 359.859375 379.464844 355.644531 379.039062 352.273438 381.148438 C 342.574219 387.472656 332.035156 391.6875 321.078125 394.214844 C 317.28125 395.058594 314.332031 398.433594 314.332031 402.648438 L 314.332031 421.617188 C 314.332031 424.144531 311.378906 426.675781 308.007812 426.675781 L 292.832031 426.675781 C 289.460938 426.675781 286.507812 424.566406 286.507812 421.617188 L 286.507812 402.648438 C 286.507812 398.851562 283.558594 395.058594 279.765625 394.214844 C 268.804688 391.6875 258.265625 387.472656 248.570312 381.148438 C 246.464844 380.308594 245.195312 379.882812 243.511719 379.882812 C 241.40625 379.882812 239.296875 380.726562 237.609375 382.414062 L 224.121094 395.902344 C 222.433594 397.589844 218.640625 397.164062 216.109375 394.636719 L 205.152344 384.097656 C 202.621094 381.570312 202.199219 377.777344 203.882812 376.089844 L 217.375 362.601562 C 220.328125 359.648438 220.746094 355.433594 218.640625 352.0625 C 212.316406 342.367188 208.101562 331.828125 205.570312 320.867188 C 204.730469 317.074219 201.355469 314.121094 197.140625 314.121094 L 178.171875 314.121094 C 175.640625 314.121094 173.113281 311.171875 173.113281 307.378906 L 173.113281 292.625 C 173.113281 289.25 175.21875 285.878906 178.171875 285.878906 L 197.140625 285.878906 C 200.9375 285.878906 204.730469 282.925781 205.570312 279.132812 C 208.101562 268.175781 212.316406 257.632812 218.640625 247.941406 C 220.746094 244.566406 220.328125 240.351562 217.375 237.398438 L 204.308594 223.910156 C 202.621094 222.222656 203.042969 218.433594 205.570312 215.902344 L 216.109375 205.367188 C 218.640625 202.835938 222.433594 202.414062 224.121094 204.097656 L 237.609375 217.589844 C 240.5625 220.539062 244.777344 220.960938 248.148438 218.851562 C 257.84375 212.53125 268.386719 208.3125 279.34375 205.785156 C 283.136719 204.941406 286.089844 201.570312 286.089844 197.351562 L 286.089844 178.386719 C 286.089844 175.855469 289.039062 173.328125 292.410156 173.328125 L 307.585938 173.328125 C 310.957031 173.328125 313.90625 175.433594 313.90625 178.386719 L 313.90625 197.351562 C 313.90625 201.148438 316.859375 204.941406 320.652344 205.785156 C 331.613281 207.894531 342.152344 212.53125 351.847656 218.433594 Z M 351.847656 218.433594 " fill-opacity="0.75" fill-rule="nonzero"/><path fill="#333333" d="M 245.195312 299.789062 C 245.195312 330.140625 269.648438 354.589844 299.996094 354.589844 C 330.351562 354.589844 354.800781 330.140625 354.800781 299.789062 C 354.800781 269.4375 330.351562 244.988281 299.996094 244.988281 C 269.648438 244.988281 245.195312 269.4375 245.195312 299.789062 Z M 245.195312 299.789062 " fill-opacity="0.5" fill-rule="nonzero"/><g clip-path="url(#24a4b309e6)"><path fill="#333333" d="M 569.78125 345.738281 C 569.78125 325.921875 559.664062 308.640625 543.644531 298.101562 C 541.117188 296.414062 537.324219 296.414062 534.792969 298.101562 C 530.15625 301.472656 522.566406 307.375 519.617188 312.433594 C 515.824219 318.757812 514.136719 326.34375 514.136719 333.511719 C 514.136719 338.570312 509.5 342.785156 504.441406 341.941406 C 500.226562 341.097656 497.273438 337.304688 497.273438 333.089844 C 497.273438 322.972656 500.226562 312.855469 505.285156 304 C 515.824219 285.875 535.636719 274.492188 556.292969 274.492188 C 556.714844 274.492188 557.558594 274.492188 557.976562 274.492188 C 563.878906 264.800781 566.832031 253.839844 566.832031 242.035156 C 566.832031 214.214844 548.703125 190.605469 523.410156 180.914062 C 523.410156 180.914062 522.992188 180.914062 522.992188 180.914062 C 518.777344 180.070312 514.558594 179.648438 509.921875 179.648438 C 490.53125 179.648438 472.40625 188.078125 461.445312 201.992188 C 459.757812 204.097656 457.230469 205.363281 454.699219 205.363281 C 453.015625 205.363281 450.910156 204.941406 449.222656 203.675781 C 445.425781 200.722656 445.007812 195.246094 447.957031 191.875 C 462.289062 174.167969 485.050781 163.207031 509.921875 163.207031 C 517.089844 163.207031 523.835938 164.050781 530.15625 165.738281 C 531.421875 161.941406 531.84375 157.726562 531.84375 153.511719 C 531.84375 126.113281 508.660156 103.769531 480.414062 103.769531 C 478.726562 103.769531 477.039062 103.769531 475.777344 103.769531 C 469.875 75.527344 443.742188 54.027344 412.546875 54.027344 C 411.703125 54.027344 407.910156 54.027344 407.066406 54.027344 C 405.800781 54.027344 391.890625 52.761719 381.351562 67.515625 C 379.664062 69.625 377.136719 70.886719 374.605469 70.886719 C 372.921875 70.886719 371.234375 70.46875 369.546875 69.203125 C 365.753906 66.253906 364.914062 61.195312 367.863281 57.398438 C 376.292969 46.019531 385.988281 40.960938 393.996094 38.851562 C 384.722656 33.371094 373.761719 30 362.382812 30 C 332.453125 30 308.425781 51.921875 308.425781 80.585938 L 308.425781 139.601562 C 330.347656 140.023438 347.628906 157.308594 347.628906 178.382812 L 347.628906 178.804688 C 348.894531 179.226562 350.15625 180.070312 351.84375 180.488281 L 352.265625 180.070312 C 367.441406 164.894531 392.3125 165.738281 407.910156 181.332031 L 418.449219 191.875 C 425.617188 199.039062 429.832031 208.734375 430.675781 218.429688 C 431.515625 229.390625 427.300781 239.925781 419.714844 247.515625 L 419.289062 247.9375 C 419.714844 249.199219 420.558594 250.46875 420.976562 252.152344 L 421.398438 252.152344 C 442.476562 252.152344 460.183594 270.277344 460.183594 292.621094 L 460.183594 307.375 C 460.183594 329.71875 442.898438 347.84375 421.398438 347.84375 L 420.976562 347.84375 C 420.558594 349.109375 419.714844 350.371094 419.289062 352.058594 L 419.714844 352.480469 C 426.878906 359.644531 430.675781 368.917969 430.675781 379.035156 C 430.675781 389.574219 426.035156 400.113281 418.449219 408.121094 L 407.910156 418.664062 C 392.3125 434.257812 367.019531 434.679688 352.265625 419.925781 L 351.84375 419.503906 C 350.582031 419.925781 349.3125 420.769531 347.628906 421.191406 L 347.628906 421.613281 C 347.628906 442.6875 329.921875 459.972656 308.425781 460.394531 L 308.425781 502.546875 C 308.425781 538.382812 339.195312 569.996094 376.292969 569.996094 C 399.898438 569.996094 420.976562 558.191406 432.78125 540.066406 C 406.222656 533.742188 386.410156 506.34375 386.410156 474.304688 C 386.410156 469.667969 390.207031 465.875 394.839844 465.875 C 399.480469 465.875 403.273438 469.667969 403.273438 474.304688 C 403.273438 500.441406 419.714844 521.519531 440.792969 524.46875 C 441.632812 524.46875 442.476562 524.46875 443.320312 524.46875 C 475.777344 524.46875 501.914062 499.175781 502.332031 468.40625 C 531.84375 466.296875 555.027344 442.6875 555.027344 413.605469 C 555.027344 405.171875 552.917969 396.742188 549.128906 389.578125 C 561.773438 379.035156 569.78125 363.019531 569.78125 345.738281 Z M 413.8125 158.992188 C 392.734375 158.992188 374.605469 145.503906 369.546875 126.53125 C 368.285156 121.898438 371.234375 117.257812 375.449219 116.414062 C 380.089844 115.152344 384.722656 118.101562 385.566406 122.316406 C 388.519531 133.699219 400.324219 142.132812 413.390625 142.132812 C 422.664062 142.132812 431.09375 138.335938 436.574219 131.589844 C 439.523438 128.21875 445.007812 127.375 448.378906 130.328125 C 451.75 133.277344 452.59375 138.757812 449.640625 142.132812 C 441.210938 152.667969 428.144531 158.992188 413.8125 158.992188 Z M 486.316406 429.199219 C 485.050781 432.996094 481.679688 435.101562 478.308594 435.101562 C 477.464844 435.101562 476.621094 435.101562 475.777344 434.679688 C 471.5625 433.414062 469.03125 428.355469 470.300781 424.140625 C 473.25 415.710938 469.875 406.015625 462.289062 400.957031 C 457.230469 397.585938 451.328125 397.160156 445.851562 399.269531 C 441.632812 400.957031 436.574219 398.847656 434.890625 394.632812 C 433.203125 390.417969 435.308594 385.363281 439.523438 383.675781 C 450.066406 379.460938 461.867188 380.722656 471.140625 386.625 C 485.472656 395.898438 491.375 413.179688 486.316406 429.199219 Z M 466.925781 270.277344 C 466.082031 270.277344 464.816406 270.277344 463.972656 270.277344 C 459.339844 269.859375 455.96875 266.0625 455.96875 261.425781 C 456.386719 256.789062 460.183594 253.417969 464.816406 253.417969 C 472.40625 253.839844 479.148438 251.308594 484.207031 246.671875 C 488.84375 242.035156 490.53125 236.132812 489.265625 230.234375 C 488.425781 225.59375 490.953125 220.957031 495.589844 220.117188 C 500.226562 219.273438 504.863281 221.800781 505.707031 226.4375 C 508.234375 237.820312 504.863281 250.042969 496.011719 258.476562 C 488.425781 266.0625 477.882812 270.277344 466.925781 270.277344 Z M 466.925781 270.277344 " fill-opacity="1" fill-rule="nonzero"/></g><g clip-path="url(#1cf4f96bba)"><path fill="#333333" d="M 156.667969 524.050781 C 157.511719 524.050781 158.355469 524.050781 159.199219 524.050781 C 178.589844 519.410156 193.34375 498.757812 193.34375 474.304688 C 193.34375 469.667969 197.136719 465.875 201.777344 465.875 C 206.410156 465.875 210.207031 469.667969 210.207031 474.304688 C 210.207031 505.5 191.660156 531.636719 166.785156 539.226562 C 178.589844 557.351562 199.667969 569.152344 223.695312 569.152344 C 260.792969 569.152344 291.5625 537.539062 291.5625 501.707031 L 291.5625 459.550781 C 269.644531 459.132812 252.363281 441.847656 252.363281 420.769531 L 252.363281 420.347656 C 251.09375 419.925781 249.832031 419.082031 248.144531 418.664062 L 247.722656 419.082031 C 232.546875 434.257812 207.675781 433.414062 192.078125 417.820312 L 181.542969 407.277344 C 165.941406 391.683594 165.523438 366.390625 180.273438 351.636719 L 180.699219 351.214844 C 180.273438 349.953125 179.433594 348.6875 179.011719 347 L 178.589844 347 C 157.511719 347 139.808594 328.875 139.808594 306.53125 L 139.808594 291.777344 C 139.808594 269.433594 157.09375 251.308594 178.589844 251.308594 L 179.011719 251.308594 C 179.433594 250.042969 180.273438 248.359375 180.699219 247.09375 L 180.273438 246.671875 C 165.097656 231.496094 165.941406 206.625 181.542969 191.03125 L 192.078125 180.488281 C 207.675781 164.894531 232.96875 164.050781 247.722656 179.226562 L 248.144531 179.648438 C 249.410156 179.226562 250.675781 178.382812 252.363281 177.960938 L 252.363281 177.539062 C 252.363281 156.464844 270.066406 139.601562 291.5625 138.757812 L 291.5625 80.585938 C 291.5625 51.921875 267.535156 30 237.605469 30 C 224.960938 30 213.578125 34.214844 204.304688 41.378906 C 211.050781 44.332031 218.214844 48.96875 224.539062 57.398438 C 227.070312 60.769531 227.070312 65.828125 224.117188 68.78125 C 222.429688 70.46875 220.324219 71.3125 218.214844 71.3125 C 215.683594 71.3125 213.15625 70.042969 211.46875 67.9375 C 205.566406 59.507812 198.402344 56.554688 192.921875 55.292969 C 192.078125 55.292969 191.234375 55.292969 190.816406 54.871094 C 189.972656 54.871094 188.707031 54.871094 187.863281 54.871094 C 156.667969 54.871094 130.53125 76.371094 124.632812 104.613281 C 122.945312 104.613281 121.683594 104.613281 119.996094 104.613281 C 91.332031 104.191406 68.148438 126.53125 68.148438 153.933594 C 68.148438 158.148438 68.566406 161.941406 69.832031 165.738281 C 75.734375 164.472656 81.636719 164.050781 87.539062 164.050781 C 111.988281 164.050781 135.171875 174.589844 149.503906 192.714844 C 152.453125 196.507812 151.609375 201.566406 148.238281 204.519531 C 146.550781 205.78125 144.867188 206.207031 143.179688 206.207031 C 140.648438 206.207031 138.121094 204.941406 136.433594 202.832031 C 125.472656 188.921875 107.347656 180.488281 87.957031 180.488281 C 84.585938 180.488281 80.792969 180.914062 77.421875 181.332031 C 51.285156 191.03125 32.738281 215.058594 32.738281 242.878906 C 32.738281 255.527344 36.53125 266.90625 42.855469 277.023438 C 44.117188 276.601562 44.960938 276.179688 46.226562 276.179688 C 67.304688 276.179688 86.695312 287.5625 97.230469 305.6875 C 102.289062 314.542969 105.242188 324.660156 105.242188 334.777344 C 105.242188 338.992188 102.289062 343.207031 98.074219 344.050781 C 93.015625 344.894531 88.382812 340.679688 88.382812 335.621094 C 88.382812 328.03125 86.273438 320.863281 82.480469 314.542969 C 77.421875 306.109375 69.410156 299.367188 60.558594 296.414062 C 42.429688 305.6875 30.207031 324.234375 30.207031 345.738281 C 30.207031 363.019531 38.214844 378.617188 50.863281 389.152344 C 47.070312 396.742188 44.960938 404.75 44.960938 413.179688 C 44.960938 442.269531 68.148438 465.875 97.65625 467.980469 C 98.074219 499.175781 124.632812 524.050781 156.667969 524.050781 Z M 149.925781 142.132812 C 146.976562 138.335938 147.394531 133.277344 151.191406 130.328125 C 154.984375 127.375 160.039062 127.796875 162.992188 131.589844 C 168.472656 138.335938 176.902344 142.132812 186.175781 142.132812 C 199.246094 142.132812 211.050781 133.699219 214 122.316406 C 215.265625 117.679688 219.902344 115.152344 224.117188 116.414062 C 228.753906 117.679688 231.285156 122.316406 230.019531 126.53125 C 224.960938 145.503906 206.835938 158.992188 185.757812 158.992188 C 171.84375 158.992188 158.777344 152.667969 149.925781 142.132812 Z M 160.039062 384.09375 C 164.257812 385.78125 166.367188 390.839844 164.679688 395.054688 C 162.992188 399.269531 157.933594 401.378906 153.71875 399.691406 C 148.238281 397.585938 142.335938 398.003906 137.277344 400.957031 C 129.691406 405.59375 126.742188 415.289062 129.269531 424.140625 C 130.53125 428.78125 128.003906 433.414062 123.789062 434.679688 C 122.945312 435.101562 122.101562 435.101562 121.257812 435.101562 C 117.890625 435.101562 114.515625 432.996094 113.25 429.199219 C 108.191406 413.179688 114.515625 395.898438 128.425781 387.042969 C 138.121094 380.722656 149.925781 379.878906 160.039062 384.09375 Z M 103.976562 258.476562 C 95.546875 250.042969 91.753906 237.820312 94.28125 226.4375 C 95.125 221.800781 99.761719 218.847656 104.398438 220.117188 C 109.035156 220.957031 111.988281 225.59375 110.722656 230.234375 C 109.457031 236.132812 111.144531 242.035156 115.78125 246.671875 C 120.839844 251.730469 127.582031 254.257812 135.171875 253.839844 C 139.808594 253.417969 143.601562 257.210938 144.023438 261.847656 C 144.445312 266.484375 140.648438 270.699219 136.015625 270.699219 C 135.171875 270.699219 133.90625 270.699219 133.0625 270.699219 C 122.101562 270.277344 111.566406 266.0625 103.976562 258.476562 Z M 103.976562 258.476562 " fill-opacity="1" fill-rule="nonzero"/></g></svg>