<svg xmlns="http://www.w3.org/2000/svg" xmlns:xlink="http://www.w3.org/1999/xlink" width="1000" zoomAndPan="magnify" viewBox="0 0 750 749.999995" height="1000" preserveAspectRatio="xMidYMid meet" version="1.0"><path fill="#5271ff" d="M 369.25 638.382812 C 303.023438 572.097656 236.828125 505.808594 170.660156 439.492188 C 167.84375 436.648438 165.507812 433.324219 163.742188 431.199219 C 144.640625 450.121094 126.855469 467.753906 109.3125 485.121094 L 374.160156 749.96875 L 535.75 588.382812 C 535.121094 587.574219 534.371094 586.707031 533.414062 585.75 C 465.777344 518.472656 398.414062 450.929688 330.988281 383.441406 C 329.25 381.707031 327.722656 379.730469 326.886719 378.742188 C 343.863281 361.4375 360.359375 344.609375 377.304688 327.304688 C 447.304688 397.214844 517.394531 467.246094 587.1875 536.945312 L 642.632812 481.496094 C 641.765625 480.597656 640.898438 479.640625 639.96875 478.742188 C 554.28125 392.933594 468.53125 307.214844 382.964844 221.289062 C 378.082031 216.378906 375.390625 215.988281 370.269531 221.136719 C 320.480469 271.347656 270.417969 321.289062 220.449219 371.347656 C 218.53125 373.292969 216.738281 375.359375 214.25 378.082031 C 285.957031 449.429688 357.1875 520.300781 430.089844 592.84375 C 413.652344 608.800781 398.441406 623.503906 383.324219 638.261719 C 376.199219 645.300781 376.257812 645.390625 369.25 638.382812 Z M 369.25 638.382812 " fill-opacity="1" fill-rule="nonzero"/><path fill="#5271ff" d="M 750.03125 374.132812 L 375.898438 0 C 373.980469 1.796875 372.277344 3.324219 370.6875 4.941406 C 277.574219 98.082031 184.460938 191.257812 91.347656 284.402344 C 70.390625 305.359375 49.460938 326.378906 0 375.808594 L 55.628906 431.4375 C 186.40625 300.539062 277.035156 209.789062 367.695312 119.132812 C 377.484375 109.339844 374.730469 108.382812 385.507812 119.160156 C 472.722656 206.4375 559.910156 293.742188 695.089844 429.101562 Z M 750.03125 374.132812 " fill-opacity="1" fill-rule="nonzero"/></svg>